<svg width="20" height="34" viewBox="0 0 20 34" fill="none" xmlns="http://www.w3.org/2000/svg">
<path d="M18.7107 6.61869L17.882 23.8424C17.7805 25.9525 16.8449 28.0164 15.2811 29.5802C13.7173 31.144 11.6534 32.0796 9.54332 32.1811C7.43328 32.2826 5.44999 31.5418 4.02975 30.1216C2.60951 28.7013 1.86866 26.718 1.97018 24.608L2.79883 7.38423C2.86651 5.97754 3.49022 4.60157 4.53276 3.55904C5.5753 2.5165 6.95126 1.89278 8.35796 1.82511C9.76465 1.75743 11.0868 2.25133 12.0337 3.19816C12.9805 4.14498 13.4744 5.46718 13.4067 6.87387L12.5682 24.1074C12.5344 24.8108 12.2225 25.4988 11.7013 26.02C11.18 26.5413 10.492 26.8532 9.78868 26.887C9.08533 26.9208 8.42424 26.6739 7.95082 26.2005C7.47741 25.7271 7.23046 25.066 7.2643 24.3626L8.03876 8.45972" stroke="#666666" stroke-width="2" stroke-linecap="round" stroke-linejoin="round"/>
</svg>
