<svg width="28" height="26" viewBox="0 0 28 26" fill="none" xmlns="http://www.w3.org/2000/svg">
<path d="M13.9698 6.90495C12.1796 6.90495 10.4627 7.60733 9.19684 8.85757C7.93097 10.1078 7.21981 11.8035 7.21981 13.5716C7.21981 15.3397 7.93097 17.0354 9.19684 18.2857C10.4627 19.5359 12.1796 20.2383 13.9698 20.2383C15.76 20.2383 17.4769 19.5359 18.7428 18.2857C20.0087 17.0354 20.7198 15.3397 20.7198 13.5716C20.7198 11.8035 20.0087 10.1078 18.7428 8.85757C17.4769 7.60733 15.76 6.90495 13.9698 6.90495ZM8.90731 13.5716C8.90731 12.2455 9.44068 10.9738 10.3901 10.0361C11.3395 9.0984 12.6272 8.57161 13.9698 8.57161C15.3125 8.57161 16.6001 9.0984 17.5495 10.0361C18.4989 10.9738 19.0323 12.2455 19.0323 13.5716C19.0323 14.8977 18.4989 16.1695 17.5495 17.1071C16.6001 18.0448 15.3125 18.5716 13.9698 18.5716C12.6272 18.5716 11.3395 18.0448 10.3901 17.1071C9.44068 16.1695 8.90731 14.8977 8.90731 13.5716ZM10.8041 0.238281C10.335 0.238296 9.87519 0.367029 9.4759 0.610118C9.07662 0.853206 8.75357 1.20109 8.54281 1.61495L7.54719 3.57161H4.69531C3.57643 3.57161 2.50337 4.0106 1.71221 4.792C0.921037 5.5734 0.476563 6.63321 0.476562 7.73828V21.0716C0.476562 22.1767 0.921037 23.2365 1.71221 24.0179C2.50337 24.7993 3.57643 25.2383 4.69531 25.2383H23.2578C24.3767 25.2383 25.4498 24.7993 26.2409 24.0179C27.0321 23.2365 27.4766 22.1767 27.4766 21.0716V7.73828C27.4766 6.63321 27.0321 5.5734 26.2409 4.792C25.4498 4.0106 24.3767 3.57161 23.2578 3.57161H20.4059L19.4204 1.62161C19.2104 1.206 18.8872 0.856421 18.4872 0.612078C18.0872 0.367735 17.6261 0.238297 17.1558 0.238281H10.8041ZM10.0498 2.36328C10.1201 2.22535 10.2279 2.10944 10.3611 2.02851C10.4943 1.94758 10.6477 1.9048 10.8041 1.90495H17.1558C17.3127 1.90464 17.4665 1.94753 17.6 2.02878C17.7336 2.11004 17.8415 2.22645 17.9118 2.36495L19.1319 4.77661C19.202 4.91486 19.3097 5.0311 19.4429 5.11234C19.5761 5.19358 19.7296 5.23661 19.8862 5.23661H23.2595C23.9308 5.23661 24.5747 5.50001 25.0494 5.96885C25.5241 6.43769 25.7907 7.07357 25.7907 7.73661V21.0716C25.7907 21.7347 25.5241 22.3705 25.0494 22.8394C24.5747 23.3082 23.9308 23.5716 23.2595 23.5716H4.697C4.02567 23.5716 3.38184 23.3082 2.90714 22.8394C2.43243 22.3705 2.16575 21.7347 2.16575 21.0716V7.73828C2.16575 7.07524 2.43243 6.43935 2.90714 5.97051C3.38184 5.50167 4.02567 5.23828 4.697 5.23828H8.06862C8.2249 5.23797 8.37802 5.19479 8.51091 5.11357C8.6438 5.03235 8.75124 4.91627 8.82125 4.77828L10.0498 2.36328Z" fill="#0D4447"/>
</svg>
